<svg xmlns="http://www.w3.org/2000/svg" viewBox="0 0 302 114.5"><defs><style>.a,.b{font-size:62.69px;font-family:AlexBrush-Regular, Alex Brush;}.b{fill:#666;}.c{fill:gray;}</style></defs><title>Asset 2</title><text class="a" transform="translate(59.83 87.85)">MyDiary</text><text class="b" transform="translate(59.83 87.85)">MyDiary</text><path class="c" d="M80.47,17l-1.37.41c-.89.26-2.2.67-3.87,1.14l-1.32.38-1.43.47-3.21,1.05L67.51,21l-1.85.68-4,1.45c-2.75,1.11-5.74,2.27-8.81,3.69-1.56.66-3.11,1.45-4.7,2.24-.79.4-1.61.77-2.4,1.21l-2.41,1.3c-3.25,1.74-6.46,3.79-9.67,5.93a92.1,92.1,0,0,0-9.2,7.21c-1.5,1.26-2.86,2.66-4.27,4S17.49,51.53,16.29,53s-2.39,3-3.54,4.49-2.14,3.07-3.06,4.66A64.61,64.61,0,0,0,5,71.61a66.74,66.74,0,0,0-2.86,9A67.44,67.44,0,0,0,.85,88.58a49.42,49.42,0,0,0-.13,6.21c0,.87.09,1.63.15,2.3S1,98.34,1,98.8l.19,1.41L.92,98.82c-.12-.45-.22-1-.33-1.69-.06-.33-.12-.69-.18-1.07s-.09-.8-.14-1.23A50,50,0,0,1,0,88.54a55.67,55.67,0,0,1,.83-8.15A60.3,60.3,0,0,1,8,61.16c.91-1.65,2-3.24,3.05-4.87l1.73-2.37c.57-.8,1.23-1.54,1.85-2.31,1.23-1.56,2.63-3,4-4.46s2.83-2.85,4.36-4.15a94,94,0,0,1,9.47-7.32,105.05,105.05,0,0,1,10-5.88l2.48-1.28c.81-.43,1.66-.78,2.47-1.16,1.64-.75,3.24-1.49,4.84-2.1l2.35-1,1.15-.46,1.15-.41,4.4-1.54,4.1-1.26,1.9-.57L69,19.62c2.35-.58,4.39-1.18,6.09-1.52s3-.64,3.94-.83Z"/><path class="c" d="M5.49,66.71q1.26-5.14,2.86-10.19c1.08-3.36,2.26-6.69,3.62-10,.68-1.63,1.42-3.24,2.23-4.82A35.61,35.61,0,0,1,17,37.16a18.3,18.3,0,0,1,1.75-2.08,9.21,9.21,0,0,1,2.23-1.7,6,6,0,0,1,.67-.29A3.07,3.07,0,0,1,22,33c.14,0,.19-.06.41-.1a1.74,1.74,0,0,1,1,.19,4.76,4.76,0,0,1,.66.38,14.23,14.23,0,0,1,2.08,1.83l-1,.22c.65-1.92,1.32-3.82,2.11-5.7.2-.47.4-.94.64-1.41.12-.24.24-.47.4-.72a3.33,3.33,0,0,1,.29-.39,4,4,0,0,1,.36-.32c.78-.64,1.55-1.28,2.31-1.93,3-2.59,6-5.32,9.1-7.92.77-.66,1.56-1.29,2.34-1.93s1.59-1.26,2.41-1.86,1.64-1.2,2.48-1.78,1.7-1.13,2.56-1.67,1.75-1.06,2.65-1.53,1.8-1,2.72-1.41l.34-.17.17-.09,0,0,.1,0,.08,0,.24-.06a1.19,1.19,0,0,1,.55.05,1.18,1.18,0,0,1,.49.33,1.35,1.35,0,0,1,.3.57,2.52,2.52,0,0,1,.08.62,9.44,9.44,0,0,1-.19,1.69c-.2,1-.45,2-.74,3l-1.73-.92c1.43-1.72,2.87-3.41,4.38-5.08.38-.42.76-.83,1.16-1.24A14.29,14.29,0,0,1,62,4.31a2.23,2.23,0,0,1,.67-.38l.4-.12.8-.25c.53-.16,1.05-.34,1.6-.49,2.2-.61,4.38-1.14,6.6-1.54,1.11-.21,2.21-.4,3.33-.55L77.06.74,78.73.57,80.41.39,82.09.27C83.21.18,84.33.11,85.45.08L87.13,0l.42,0h1.29C89.38,0,90,.1,90.6.14s1.17.16,1.74.28a18.7,18.7,0,0,1,6.53,2.65,15.43,15.43,0,0,1,1.44,1.07c.23.2.46.4.69.63.07.08.09.09.2.22l.07.09.06.08v0l.06.09.23.35c.08.12.15.22.23.36l.24.43a6.56,6.56,0,0,1,.42.86,6.25,6.25,0,0,1,.33.88,6.3,6.3,0,0,1,.24.92,9,9,0,0,1,0,3.77,11.88,11.88,0,0,1-1.37,3.39,23,23,0,0,1-4.53,5.3A61.33,61.33,0,0,1,86,29.1a134.09,134.09,0,0,1-12.1,5.81c-4.12,1.75-8.28,3.32-12.55,4.71l-.12-1.7c.91.18,1.77.39,2.64.63a19.26,19.26,0,0,1,2.6.92,7.35,7.35,0,0,1,1.3.73,3.12,3.12,0,0,1,.64.6,1.79,1.79,0,0,1,.42,1.06,4.21,4.21,0,0,1-.3,1.6,5,5,0,0,1-.79,1.33,9.35,9.35,0,0,1-2.16,1.88A19.49,19.49,0,0,1,63.13,48a38.69,38.69,0,0,1-5,1.88,90.57,90.57,0,0,1-10.37,2.39c-3.49.61-7,1.1-10.51,1.45l.22-1.07a11,11,0,0,1,1,.64,10.59,10.59,0,0,1,.9.72,6.49,6.49,0,0,1,1.49,1.86,4.11,4.11,0,0,1,.24.6,3.48,3.48,0,0,1,.11.66,3,3,0,0,1-.06.68,2.77,2.77,0,0,1-.23.64,4.61,4.61,0,0,1-1.73,1.73l0,0h0c-1.17.55-2.35,1.26-3.54,1.91s-2.4,1.29-3.64,1.87a43.24,43.24,0,0,1-7.7,2.77c-.66.16-1.33.32-2,.45s-1.34.25-2,.35a36.34,36.34,0,0,1-4.07.38c-.68,0-1.36,0-2,0s-1.36,0-2-.07-1.36-.09-2-.16-1.35-.17-2-.25c.68.05,1.35.14,2,.17s1.35.07,2,.08,1.35,0,2,0,1.35-.05,2-.11a39.38,39.38,0,0,0,4-.5c.67-.11,1.32-.25,2-.4s1.31-.32,2-.5a42.54,42.54,0,0,0,7.5-3c1.2-.6,2.37-1.26,3.54-1.95s2.29-1.41,3.55-2.05l-.05,0A3.61,3.61,0,0,0,39.89,58a1.82,1.82,0,0,0,.14-.39,2,2,0,0,0,0-.4,2.26,2.26,0,0,0-.08-.41,2.84,2.84,0,0,0-.17-.42,5.41,5.41,0,0,0-1.26-1.51,10.06,10.06,0,0,0-.81-.64c-.28-.2-.58-.4-.87-.56l-1.52-.87,1.74-.2c3.47-.39,7-.92,10.39-1.57a89.56,89.56,0,0,0,10.18-2.48,37.23,37.23,0,0,0,4.83-1.87,17.93,17.93,0,0,0,2.2-1.24,7.91,7.91,0,0,0,1.79-1.59,3.45,3.45,0,0,0,.55-.94,2.51,2.51,0,0,0,.18-1,1.14,1.14,0,0,0-.42-.42,5.71,5.71,0,0,0-1-.54,24.49,24.49,0,0,0-4.9-1.32L57.58,39l3.19-1.1c2.07-.72,4.15-1.5,6.2-2.31s4.1-1.64,6.13-2.52c4.05-1.75,8-3.66,11.88-5.8a59.46,59.46,0,0,0,10.76-7.4,20.94,20.94,0,0,0,4.07-4.81,7.82,7.82,0,0,0,1.12-5.61,4.18,4.18,0,0,0-.19-.69,4.28,4.28,0,0,0-.26-.67,4.66,4.66,0,0,0-.31-.64L100,7.18c-.06-.1-.15-.23-.22-.34l-.23-.35-.06-.09v0l0,0h0l-.09-.08c-.16-.16-.35-.33-.54-.49A13.2,13.2,0,0,0,97.63,5a17.47,17.47,0,0,0-2.75-1.44,18.6,18.6,0,0,0-3-.91c-.51-.11-1-.18-1.54-.26s-1-.12-1.55-.12l-.83,0h-.79l-1.65,0c-1.1,0-2.2.08-3.29.16l-1.64.1L79,2.7l-1.64.16-1.63.22c-1.09.13-2.17.31-3.25.51C70.28,4,68.14,4.47,66.05,5c-.53.14-1.06.32-1.59.47l-.8.24-.4.12c.12,0,0,0,0,.05a12.72,12.72,0,0,0-1.11,1c-.38.39-.75.78-1.12,1.19-1.48,1.62-2.92,3.3-4.34,5l-3,3.62,1.31-4.54c.27-.93.52-1.9.7-2.83a7.92,7.92,0,0,0,.16-1.3c0-.08,0-.15,0-.12a.55.55,0,0,0,.14.23.83.83,0,0,0,.7.26l.15,0h0l0,0h0l0,0-.17.08-.33.16c-.89.43-1.78.86-2.64,1.34S51.88,11,51,11.49s-1.69,1-2.51,1.59-1.65,1.1-2.46,1.69-1.6,1.18-2.4,1.77-1.58,1.22-2.35,1.85c-3.12,2.5-6.13,5.17-9.27,7.72-.78.65-1.57,1.27-2.36,1.89l-.21.17-.16.21c-.12.18-.23.39-.34.6-.22.43-.42.87-.62,1.33-.78,1.82-1.49,3.7-2.16,5.58l-.34,1-.69-.74a13,13,0,0,0-1.85-1.69,1.78,1.78,0,0,0-.79-.39,5,5,0,0,0-1.06.37,11.57,11.57,0,0,0-3.69,3.36A34.81,34.81,0,0,0,15,42.14c-.84,1.53-1.62,3.11-2.34,4.71-1.45,3.2-2.72,6.48-3.89,9.8S6.46,63.31,5.49,66.71Z"/></svg>